<?xml version="1.0" encoding="UTF-8"?>
<svg id="Layer_2" data-name="Layer 2" xmlns="http://www.w3.org/2000/svg" viewBox="0 0 203.55 40">
  <defs>
    <style>
      .cls-1 {
        fill: #4e9ebd;
      }

      .cls-2 {
        fill: #595959;
      }
    </style>
  </defs>
  <g id="Layer_1-2" data-name="Layer 1">
    <g>
      <path class="cls-1" d="M155.2,6.83v30.77h36.84v-16.59c0-.11.4-.68.55-.76.6-.34,1.44-.12,1.75.5v18.62c-.22.38-.58.66-1.04.63h-39.36c-.49.03-.88-.3-1.08-.72l-.06-33.71c-.03-.54.29-.85.76-1.04l32.32-.1c1.71.2,1.17,2.4.24,2.4h-30.92Z"/>
      <g>
        <path class="cls-1" d="M186.18,26.75c.22-1.03,2.05-1.18,2.34.05.13.53.13,3.2.02,3.75-.1.51-.51.82-1,.92h-27.85c-.77-.11-.97-.53-1.03-1.24-.18-1.97.14-4.22.01-6.22.06-.39.36-.69.7-.85l14.41-.05c.87.14,1.04,1.23.59,1.88-.06.08-.43.39-.46.39h-12.86v3.71h25.12c.1-.67-.13-1.71,0-2.33Z"/>
        <path class="cls-1" d="M161.06,14.01v3.71h14.29c.14,0,.62.46.69.63.34.84-.06,1.58-.93,1.76l-15.61-.05c-.51-.23-.77-.5-.84-1.08-.15-1.32-.16-4.92,0-6.22.06-.5.39-.88.86-1.05l19.88-.07c.97.1,1.52,1.28.84,2.02-.07.07-.56.37-.59.37h-18.6Z"/>
      </g>
      <path class="cls-1" d="M203.34,5.16l-4.96-4.96c-.35-.25-.81-.23-1.2-.13l-17.34,17.23c-.61,2.29-2.14,5.09-2.57,7.35-.09.48-.15,1.02.23,1.4s.91.32,1.4.23c.89-.17,6.77-2.22,7.4-2.65l17.04-17.04c.28-.41.28-1.02,0-1.43ZM185.05,21.55l-4.72,1.67,1.67-4.72,11.78-11.67,3.05,2.93-11.78,11.79Z"/>
    </g>
    <g>
      <path class="cls-2" d="M10.87,25.35h2.16v2.9h-2.45c-1.49,0-2.64-.5-3.46-1.49-.69.53-1.53.79-2.52.79-1.47,0-2.65-.55-3.53-1.66-.72-.91-1.08-2.01-1.08-3.29,0-1.58.51-2.87,1.54-3.86.86-.83,1.86-1.25,3-1.25.59,0,1.14.11,1.63.34v-.62l3-1.58v7.99c0,.62.13,1.07.4,1.33.26.26.7.4,1.31.4ZM3.12,14.7c-.48,0-.86-.14-1.15-.43-.29-.29-.43-.68-.43-1.18,0-1.04.53-1.56,1.58-1.56.48,0,.86.14,1.14.42.28.28.42.66.42,1.14,0,1.07-.52,1.61-1.56,1.61ZM6.17,20.87c-.42-.35-.89-.53-1.42-.53s-.96.22-1.28.65c-.33.43-.49,1-.49,1.7s.16,1.26.48,1.68c.32.42.76.62,1.32.62.61,0,1.08-.21,1.42-.62-.02-.13-.02-.33-.02-.6v-2.9ZM6.82,14.7c-.48,0-.86-.14-1.15-.43-.29-.29-.43-.68-.43-1.18,0-1.04.53-1.56,1.58-1.56.48,0,.86.14,1.14.42.28.28.42.66.42,1.14,0,1.07-.52,1.61-1.56,1.61Z"/>
      <path class="cls-2" d="M20.14,25.35h2.16v2.9h-2.45c-1.17,0-2.14-.31-2.9-.94-.77.62-1.74.94-2.9.94h-2.45v-2.9h2.16c.61,0,1.04-.13,1.3-.4.26-.26.38-.71.38-1.33v-4.44l3.02-1.58v6.02c0,.62.13,1.07.38,1.33.26.26.69.4,1.3.4ZM13.92,30.44c.48,0,.86.14,1.14.42s.42.66.42,1.14c0,1.07-.52,1.61-1.56,1.61-.48,0-.86-.14-1.15-.43s-.43-.68-.43-1.18c0-1.04.53-1.56,1.58-1.56ZM17.62,30.44c.48,0,.86.14,1.14.42s.42.66.42,1.14c0,1.07-.52,1.61-1.56,1.61-.48,0-.86-.14-1.15-.43s-.43-.68-.43-1.18c0-1.04.53-1.56,1.58-1.56Z"/>
      <path class="cls-2" d="M36.12,25.35h2.14v2.9h-2.45c-1.15,0-2.1-.3-2.83-.89-.86.91-2,1.37-3.41,1.37s-2.58-.46-3.41-1.37c-.77.59-1.72.89-2.86.89h-2.45v-2.9h2.16c.61,0,1.04-.13,1.3-.4.26-.26.38-.71.38-1.33v-.7c0-1.87.49-3.33,1.46-4.37.85-.91,1.98-1.37,3.41-1.37,1.62,0,2.86.59,3.74,1.78.74,1.01,1.1,2.33,1.1,3.96v.7c0,.62.13,1.07.4,1.33.26.26.7.4,1.31.4ZM29.57,25.83c1.22,0,1.82-.99,1.82-2.98s-.61-2.86-1.82-2.86-1.85.95-1.85,2.86.62,2.98,1.85,2.98Z"/>
      <path class="cls-2" d="M45.36,25.35h2.16v2.9h-2.45c-1.17,0-2.14-.31-2.9-.94-.77.62-1.74.94-2.9.94h-2.45v-2.9h2.16c.61,0,1.04-.13,1.3-.4.26-.26.38-.71.38-1.33v-4.44l3.02-1.58v6.02c0,.62.13,1.07.38,1.33.26.26.69.4,1.3.4ZM39.14,30.44c.48,0,.86.14,1.14.42s.42.66.42,1.14c0,1.07-.52,1.61-1.56,1.61-.48,0-.86-.14-1.15-.43s-.43-.68-.43-1.18c0-1.04.53-1.56,1.58-1.56ZM42.84,30.44c.48,0,.86.14,1.14.42s.42.66.42,1.14c0,1.07-.52,1.61-1.56,1.61-.48,0-.86-.14-1.15-.43s-.43-.68-.43-1.18c0-1.04.53-1.56,1.58-1.56Z"/>
      <path class="cls-2" d="M54.34,25.35h2.16v2.9h-2.45c-1.25,0-2.26-.35-3.05-1.06-.88.7-1.96,1.06-3.24,1.06h-1.68v-2.9h1.51c.74,0,1.26-.16,1.57-.48.31-.32.47-.86.47-1.63v-8.86l3-1.61v4.85l.02-.02v6.02c0,.62.13,1.07.38,1.33.26.26.69.4,1.3.4Z"/>
      <path class="cls-2" d="M66.84,25.35h6.6l.05,2.9h-6.94c-.82,0-1.58-.2-2.3-.6-.75.4-1.52.6-2.3.6h-6.89v-2.9h6.53c-.72-.5-1.32-.97-1.8-1.42-.27-.24-.69-.69-1.25-1.34-.18-.21-.32-.38-.43-.5v-1.37c.7-1.07,1.61-1.93,2.72-2.57,1.11-.64,2.25-.96,3.42-.96s2.29.32,3.41.97c1.12.65,2.05,1.52,2.78,2.6v1.32c-1.07,1.3-2.27,2.38-3.6,3.26ZM64.22,24.2c1.2-.94,2.09-1.9,2.66-2.86-.96-.9-1.86-1.34-2.71-1.34s-1.67.45-2.54,1.34c.62,1.1,1.49,2.06,2.59,2.86Z"/>
      <path class="cls-2" d="M72.05,28.26v-2.9h2.16c.61,0,1.04-.13,1.3-.4.26-.26.38-.71.38-1.33v-4.44l3.02-1.58v6.17c0,1.46-.45,2.59-1.34,3.41-.78.72-1.81,1.08-3.07,1.08h-2.45ZM73.78,15.18c-.48,0-.86-.14-1.15-.43-.29-.29-.43-.68-.43-1.18,0-1.04.53-1.56,1.58-1.56.48,0,.86.14,1.14.42.28.28.42.66.42,1.14,0,1.07-.52,1.61-1.56,1.61ZM77.47,15.18c-.48,0-.86-.14-1.15-.43-.29-.29-.43-.68-.43-1.18,0-1.04.53-1.56,1.58-1.56.48,0,.86.14,1.14.42.28.28.42.66.42,1.14,0,1.07-.52,1.61-1.56,1.61Z"/>
      <path class="cls-2" d="M99.5,35.91c-1.39.9-2.97,1.34-4.73,1.34-1.92,0-3.46-.61-4.61-1.82-1.1-1.17-1.66-2.7-1.66-4.61,0-2,.58-3.57,1.75-4.7.51-.5,1.07-.87,1.67-1.13.6-.26,1.67-.57,3.2-.94,1.39-.34,2.38-.73,2.95-1.18-1.1-1.94-2.43-2.9-3.98-2.9-1.31,0-2.71.7-4.2,2.09v-2.66c1.33-1.47,2.84-2.21,4.54-2.21,1.26,0,2.49.46,3.67,1.37,1.18.91,2.23,2.21,3.14,3.89v1.2c-.48.83-1.09,1.46-1.84,1.9s-1.92.84-3.54,1.22c-1.71.4-2.86.86-3.43,1.37-.69.64-1.03,1.54-1.03,2.71,0,2.34,1.22,3.5,3.67,3.5,1.57,0,3.04-.43,4.42-1.3v2.86ZM95.11,32.1c-.91,0-1.37-.46-1.37-1.37s.46-1.34,1.37-1.34,1.32.45,1.32,1.34-.44,1.37-1.32,1.37Z"/>
      <path class="cls-2" d="M102.22,28.26l1.51-2.9h3.79c.82,0,1.22-.47,1.22-1.42,0-1.78-.85-3.14-2.54-4.08l1.49-2.54c2.72,1.6,4.08,3.82,4.08,6.67s-1.23,4.27-3.7,4.27h-5.86ZM107.74,15.18c-.48,0-.86-.14-1.15-.43-.29-.29-.43-.68-.43-1.18,0-.46.14-.84.43-1.13s.67-.43,1.15-.43.86.14,1.14.42c.28.28.42.66.42,1.14,0,1.07-.52,1.61-1.56,1.61Z"/>
      <path class="cls-2" d="M120,28.26c-1.46,0-2.58-.46-3.38-1.39-.69-.8-1.03-1.83-1.03-3.1v-9.41l3.02-1.58v10.85c0,.62.13,1.07.38,1.33.26.26.69.4,1.3.4h2.16v2.9h-2.45Z"/>
      <path class="cls-2" d="M136.27,25.35h2.14v2.9h-2.45c-1.15,0-2.1-.3-2.83-.89-.86.91-2,1.37-3.41,1.37s-2.58-.46-3.41-1.37c-.77.59-1.72.89-2.86.89h-2.45v-2.9h2.16c.61,0,1.04-.13,1.3-.4.26-.26.38-.71.38-1.33v-.7c0-1.87.49-3.33,1.46-4.37.85-.91,1.98-1.37,3.41-1.37,1.62,0,2.86.59,3.74,1.78.74,1.01,1.1,2.33,1.1,3.96v.7c0,.62.13,1.07.4,1.33.26.26.7.4,1.31.4ZM129.72,25.83c1.22,0,1.82-.99,1.82-2.98s-.61-2.86-1.82-2.86-1.85.95-1.85,2.86.62,2.98,1.85,2.98Z"/>
      <path class="cls-2" d="M136.97,28.26v-2.9h2.16c.61,0,1.04-.13,1.3-.4.26-.26.38-.71.38-1.33v-4.44l3.02-1.58v6.17c0,1.46-.45,2.59-1.34,3.41-.78.72-1.81,1.08-3.07,1.08h-2.45ZM142.39,15.18c-.48,0-.86-.14-1.15-.43-.29-.29-.43-.68-.43-1.18,0-.46.14-.84.43-1.13s.67-.43,1.15-.43.86.14,1.14.42c.28.28.42.66.42,1.14,0,1.07-.52,1.61-1.56,1.61Z"/>
    </g>
  </g>
</svg>